<?xml version="1.0" standalone="no"?>
<!DOCTYPE svg PUBLIC "-//W3C//DTD SVG 20010904//EN"
 "http://www.w3.org/TR/2001/REC-SVG-20010904/DTD/svg10.dtd">
<svg version="1.0" xmlns="http://www.w3.org/2000/svg"
 width="512.000000pt" height="512.000000pt" viewBox="0 0 512.000000 512.000000"
 preserveAspectRatio="xMidYMid meet">
<metadata>
Created by potrace 1.11, written by Peter Selinger 2001-2013
</metadata>
<g transform="translate(0.000000,512.000000) scale(0.100000,-0.100000)"
fill="#000000" stroke="none">
<path d="M2365 5105 c-41 -22 -64 -44 -84 -80 -14 -27 -17 -99 -21 -650 l-5
-620 -44 100 c-179 411 -486 931 -579 982 -98 54 -143 41 -297 -85 -130 -107
-155 -142 -155 -215 0 -56 10 -78 101 -214 74 -109 95 -127 140 -121 26 4 32
-1 68 -61 21 -36 48 -84 59 -107 20 -40 20 -41 1 -57 -11 -10 -19 -30 -19 -46
0 -17 35 -106 79 -198 168 -359 302 -728 386 -1063 19 -74 33 -135 32 -135 -1
-1 -39 -16 -84 -34 -383 -152 -703 -492 -802 -851 -71 -253 -53 -539 47 -771
79 -182 156 -295 301 -439 213 -211 465 -346 771 -412 138 -29 446 -32 580 -5
186 38 350 100 505 191 106 63 125 82 125 123 0 74 -72 95 -150 42 -69 -47
-206 -113 -302 -147 -348 -123 -750 -96 -1082 72 -284 144 -499 374 -610 650
-190 477 -3 999 465 1294 256 161 579 238 891 212 345 -30 636 -159 864 -385
278 -275 383 -640 289 -999 -32 -123 -78 -224 -156 -343 -48 -73 -60 -98 -57
-124 4 -44 44 -74 87 -64 42 9 113 109 192 270 287 585 55 1256 -554 1603 -48
28 -125 65 -170 83 -45 18 -83 33 -84 34 -4 2 75 298 105 396 152 486 410
1047 642 1394 90 134 100 156 100 212 0 73 -25 108 -155 215 -154 126 -199
139 -297 85 -93 -51 -400 -571 -579 -982 l-44 -100 -5 620 c-6 692 -2 655 -77
712 -36 28 -37 28 -212 31 -146 2 -181 0 -206 -13z m585 -2099 c52 -9 96 -18
98 -20 2 -2 -6 -37 -19 -78 -12 -40 -36 -128 -54 -196 -18 -68 -34 -124 -36
-126 -2 -2 -51 5 -109 15 -73 13 -155 18 -270 18 -115 0 -197 -5 -270 -18 -58
-10 -106 -17 -108 -16 -1 1 -22 76 -47 166 -24 90 -48 179 -54 196 -5 18 -6
35 -3 37 8 4 125 25 212 37 99 13 555 3 660 -15z"/>
<path d="M1952 1470 c-26 -24 -37 -76 -28 -137 10 -72 48 -102 104 -82 38 13
52 46 52 125 0 56 -4 68 -25 89 -30 30 -73 32 -103 5z"/>
<path d="M3065 1465 c-21 -21 -25 -33 -25 -89 0 -36 5 -76 11 -90 21 -46 94
-53 127 -14 16 20 26 98 18 142 -14 72 -83 99 -131 51z"/>
<path d="M2360 1370 c-12 -12 -20 -33 -20 -54 0 -27 8 -41 41 -71 57 -51 102
-68 179 -68 77 0 122 17 179 68 33 30 41 44 41 71 0 74 -70 96 -142 44 -28
-20 -53 -30 -78 -30 -25 0 -50 10 -78 30 -49 35 -93 39 -122 10z"/>
</g>
</svg>
